<mxfile host="app.diagrams.net" modified="2021-08-03T14:56:43.751Z" agent="5.0 (Macintosh; Intel Mac OS X 10_14_4) AppleWebKit/537.36 (KHTML, like Gecko) Chrome/91.0.4472.114 Safari/537.36" etag="lMmGXnvq2ucywMprlZNz" version="14.9.3" type="github">
  <diagram id="qDRDD9NFqShbIktwUC1u" name="Page-1">
    <mxGraphModel dx="845" dy="509" grid="1" gridSize="10" guides="1" tooltips="1" connect="1" arrows="1" fold="1" page="1" pageScale="1" pageWidth="827" pageHeight="1169" math="0" shadow="0">
      <root>
        <mxCell id="0" />
        <mxCell id="1" parent="0" />
        <mxCell id="qIyB2IWAd6fnd7aY5QCS-1" value="" style="rounded=0;whiteSpace=wrap;html=1;" vertex="1" parent="1">
          <mxGeometry x="190" y="120" width="320" height="80" as="geometry" />
        </mxCell>
        <mxCell id="qIyB2IWAd6fnd7aY5QCS-2" value="Token or Character Level Errors" style="text;html=1;align=center;verticalAlign=middle;resizable=0;points=[];autosize=1;strokeColor=none;" vertex="1" parent="1">
          <mxGeometry x="180" y="90" width="190" height="20" as="geometry" />
        </mxCell>
        <mxCell id="qIyB2IWAd6fnd7aY5QCS-3" value="T h i s&amp;nbsp; &amp;nbsp; i s&amp;nbsp; &amp;nbsp; a n&amp;nbsp; &amp;nbsp; e x a m p l e" style="text;html=1;strokeColor=none;fillColor=none;align=center;verticalAlign=middle;whiteSpace=wrap;rounded=0;" vertex="1" parent="1">
          <mxGeometry x="210" y="130" width="270" height="20" as="geometry" />
        </mxCell>
        <mxCell id="qIyB2IWAd6fnd7aY5QCS-4" value="T h&lt;font color=&quot;#ff0000&quot;&gt; l &lt;/font&gt;s&amp;nbsp; &amp;nbsp; i s&lt;font color=&quot;#ff0000&quot;&gt;&#39;&lt;/font&gt;&amp;nbsp; &amp;nbsp;&lt;font color=&quot;#ff0000&quot;&gt; a&amp;nbsp;&lt;/font&gt;&amp;nbsp; &amp;nbsp; &amp;nbsp;e &lt;font color=&quot;#ff0000&quot;&gt;a x&lt;/font&gt; m p l e" style="text;html=1;strokeColor=none;fillColor=none;align=center;verticalAlign=middle;whiteSpace=wrap;rounded=0;" vertex="1" parent="1">
          <mxGeometry x="210" y="170" width="270" height="20" as="geometry" />
        </mxCell>
        <mxCell id="qIyB2IWAd6fnd7aY5QCS-5" value="" style="rounded=0;whiteSpace=wrap;html=1;" vertex="1" parent="1">
          <mxGeometry x="190" y="250" width="320" height="80" as="geometry" />
        </mxCell>
        <mxCell id="qIyB2IWAd6fnd7aY5QCS-6" value="Span Level Errors" style="text;html=1;align=center;verticalAlign=middle;resizable=0;points=[];autosize=1;strokeColor=none;" vertex="1" parent="1">
          <mxGeometry x="185" y="220" width="110" height="20" as="geometry" />
        </mxCell>
        <mxCell id="qIyB2IWAd6fnd7aY5QCS-7" value="乌龟默默想着(translation:t&lt;span style=&quot;font-family: &amp;#34;nimbusromno9l&amp;#34; ; font-size: 10pt&quot;&gt;he tortoise meditated&lt;/span&gt;)" style="text;html=1;align=center;verticalAlign=middle;resizable=0;points=[];autosize=1;strokeColor=none;" vertex="1" parent="1">
          <mxGeometry x="203" y="260" width="290" height="20" as="geometry" />
        </mxCell>
        <mxCell id="qIyB2IWAd6fnd7aY5QCS-8" value="乌&lt;font color=&quot;#ff0000&quot;&gt;乌黑黑的箱子&lt;/font&gt;(translation:j&lt;span style=&quot;font-family: &amp;#34;nimbusromno9l&amp;#34; ; font-size: 10pt&quot;&gt;et black box&lt;/span&gt;)" style="text;html=1;align=center;verticalAlign=middle;resizable=0;points=[];autosize=1;strokeColor=none;" vertex="1" parent="1">
          <mxGeometry x="200" y="296" width="250" height="20" as="geometry" />
        </mxCell>
      </root>
    </mxGraphModel>
  </diagram>
</mxfile>
